<svg width="512" height="512" viewBox="0 0 512 512" fill="none" xmlns="http://www.w3.org/2000/svg" role="img" aria-label="EngScroll">
  <defs>
    <linearGradient id="es-bg" x1="64" y1="48" x2="448" y2="464" gradientUnits="userSpaceOnUse">
      <stop stop-color="#2E90FF"/>
      <stop offset="1" stop-color="#0A5DC2"/>
    </linearGradient>
  </defs>
  <rect width="512" height="512" rx="116" fill="url(#es-bg)"/>
  <!-- speech bubble (English) with tail -->
  <path d="M150 116 H362 a44 44 0 0 1 44 44 V300 a44 44 0 0 1 -44 44 H236 l-58 56 a10 10 0 0 1 -17 -7 V344 h-11 a44 44 0 0 1 -44 -44 V160 a44 44 0 0 1 44 -44 Z" fill="#ffffff"/>
  <!-- three feed / text lines (reads as an E) -->
  <rect x="150" y="170" width="212" height="30" rx="15" fill="#1877F2"/>
  <rect x="150" y="222" width="150" height="30" rx="15" fill="#5AA0F5"/>
  <rect x="150" y="274" width="182" height="30" rx="15" fill="#1877F2"/>
</svg>
